# Blender 4.0.2
# www.blender.org
mtllib main_menu_street.mtl
o Plane
v -20.000000 0.000000 2.000000
v 20.388397 0.263209 2.822067
v -20.000000 0.000000 -2.000000
v 22.428741 0.138410 -1.318377
v -19.243216 -0.375181 3.340098
v 20.756786 -0.375181 3.340098
v -19.938875 -0.343581 -3.014618
v 20.061123 -0.343581 -3.014618
v -19.936111 -0.432500 9.252843
v 20.063892 -0.432500 9.252843
v -16.513187 -0.050704 23.721745
v 23.486814 -0.050704 23.721745
v 25.722260 2.369892 16.667974
v 29.675066 1.179645 30.136845
v 27.426863 0.633610 13.021078
v 27.621658 1.717182 10.852997
v 28.123726 0.802743 -27.386095
v 23.044956 0.284541 -11.725414
v 28.886650 1.564311 6.471486
v -16.955044 0.284541 -11.725414
v 30.783855 -2.950802 1.783469
v -11.876273 0.802743 -27.386095
v 33.697968 -2.211921 -6.018090
v 39.554489 -0.970687 -21.657677
vn -0.0045 0.9999 -0.0165
vn -0.0078 0.8759 0.4825
vn 0.0008 0.9564 -0.2920
vn -0.0000 1.0000 0.0097
vn -0.0000 0.9997 -0.0264
vn -0.4704 0.8697 0.1494
vn -0.0478 0.9817 -0.1844
vn -0.6617 0.6110 0.4345
vn -0.1180 0.9899 -0.0780
vn 0.4625 0.6813 -0.5674
vn -0.0000 0.9974 0.0719
vn -0.0000 0.9995 0.0331
vn 0.1645 0.9764 0.1396
vn 0.1370 0.9852 0.1032
vt 0.000000 0.000000
vt 1.000000 0.000000
vt 1.000000 1.000000
vt 0.000000 1.000000
s 0
usemtl street
f 1/1/1 2/2/1 4/3/1 3/4/1
f 4/3/9 2/2/9 16/2/9 19/3/9
usemtl ground
f 2/2/2 1/1/2 5/1/2 6/2/2
f 3/4/3 4/3/3 8/3/3 7/4/3
f 6/2/4 5/1/4 9/1/4 10/2/4
f 10/2/5 9/1/5 11/1/5 12/2/5
f 10/2/6 12/2/6 14/2/6 13/2/6
f 6/2/7 10/2/7 13/2/7 15/2/7
f 2/2/8 6/2/8 15/2/8 16/2/8
f 8/3/10 4/3/10 19/3/10 21/3/10
f 7/4/11 8/3/11 18/3/11 20/4/11
f 20/4/12 18/3/12 17/3/12 22/4/12
f 8/3/13 21/3/13 23/3/13 18/3/13
f 18/3/14 23/3/14 24/3/14 17/3/14
